<svg class="animated" id="freepik_stories-news" xmlns="http://www.w3.org/2000/svg" viewBox="0 0 500 500" version="1.1" xmlns:xlink="http://www.w3.org/1999/xlink" xmlns:svgjs="http://svgjs.com/svgjs"><style>svg#freepik_stories-news:not(.animated) .animable {opacity: 0;}svg#freepik_stories-news.animated #freepik--News--inject-7 {animation: 1.5s Infinite  linear floating;animation-delay: 0s;}            @keyframes floating {                0% {                    opacity: 1;                    transform: translateY(0px);                }                50% {                    transform: translateY(-10px);                }                100% {                    opacity: 1;                    transform: translateY(0px);                }            }        </style><g id="freepik--background-complete--inject-7" class="animable" style="transform-origin: 250px 228.23px;"><rect y="382.4" width="500" height="0.25" style="fill: rgb(235, 235, 235); transform-origin: 250px 382.525px;" id="elvmh8zual9li" class="animable"></rect><rect x="416.78" y="398.49" width="33.12" height="0.25" style="fill: rgb(235, 235, 235); transform-origin: 433.34px 398.615px;" id="el70p7w95zjew" class="animable"></rect><rect x="292" y="401.21" width="39.22" height="0.25" style="fill: rgb(235, 235, 235); transform-origin: 311.61px 401.335px;" id="elth1myl7ncuo" class="animable"></rect><rect x="358.76" y="389.21" width="57.02" height="0.25" style="fill: rgb(235, 235, 235); transform-origin: 387.27px 389.335px;" id="elpesdu6puybd" class="animable"></rect><rect x="174.48" y="390.89" width="68.63" height="0.25" style="fill: rgb(235, 235, 235); transform-origin: 208.795px 391.015px;" id="eld67a764q44e" class="animable"></rect><rect x="252.01" y="390.89" width="6.33" height="0.25" style="fill: rgb(235, 235, 235); transform-origin: 255.175px 391.015px;" id="elz8kipx7bzs" class="animable"></rect><rect x="98.33" y="395.11" width="126.81" height="0.25" style="fill: rgb(235, 235, 235); transform-origin: 161.735px 395.235px;" id="elgp85zsr4ea" class="animable"></rect><path d="M237,337.8H43.91a5.71,5.71,0,0,1-5.7-5.71V60.66A5.71,5.71,0,0,1,43.91,55H237a5.71,5.71,0,0,1,5.71,5.71V332.09A5.71,5.71,0,0,1,237,337.8ZM43.91,55.2a5.46,5.46,0,0,0-5.45,5.46V332.09a5.46,5.46,0,0,0,5.45,5.46H237a5.47,5.47,0,0,0,5.46-5.46V60.66A5.47,5.47,0,0,0,237,55.2Z" style="fill: rgb(235, 235, 235); transform-origin: 140.46px 196.4px;" id="elhenwt0zebwj" class="animable"></path><path d="M453.31,337.8H260.21a5.72,5.72,0,0,1-5.71-5.71V60.66A5.72,5.72,0,0,1,260.21,55h193.1A5.71,5.71,0,0,1,459,60.66V332.09A5.71,5.71,0,0,1,453.31,337.8ZM260.21,55.2a5.47,5.47,0,0,0-5.46,5.46V332.09a5.47,5.47,0,0,0,5.46,5.46h193.1a5.47,5.47,0,0,0,5.46-5.46V60.66a5.47,5.47,0,0,0-5.46-5.46Z" style="fill: rgb(235, 235, 235); transform-origin: 356.75px 196.4px;" id="elwjalwbhvztm" class="animable"></path><g id="eljc2dod0w1x"><rect x="78.33" y="264.72" width="35.03" height="117.68" style="fill: rgb(245, 245, 245); transform-origin: 95.845px 323.56px; transform: rotate(180deg);" class="animable"></rect></g><g id="eljfuf5tefyst"><rect x="78.33" y="264.72" width="5.78" height="117.68" style="fill: rgb(240, 240, 240); transform-origin: 81.22px 323.56px; transform: rotate(180deg);" class="animable"></rect></g><rect x="107.97" y="268.61" width="133.02" height="29.44" style="fill: rgb(230, 230, 230); transform-origin: 174.48px 283.33px;" id="eliclx4qr8r" class="animable"></rect><rect x="107.97" y="306.87" width="133.02" height="6.8" style="fill: rgb(230, 230, 230); transform-origin: 174.48px 310.27px;" id="elpqmmtuc4nbg" class="animable"></rect><rect x="78.33" y="264.72" width="154.88" height="10.22" style="fill: rgb(240, 240, 240); transform-origin: 155.77px 269.83px;" id="elzc2gdnk4q2" class="animable"></rect><g id="el19bghvrmngs"><rect x="233.21" y="264.72" width="35.03" height="117.68" style="fill: rgb(245, 245, 245); transform-origin: 250.725px 323.56px; transform: rotate(180deg);" class="animable"></rect></g><g id="elzexnm54uums"><rect x="233.21" y="264.72" width="5.78" height="117.68" style="fill: rgb(240, 240, 240); transform-origin: 236.1px 323.56px; transform: rotate(180deg);" class="animable"></rect></g><g id="el0zlmfga3t4u"><rect x="223.28" y="261.41" width="181.84" height="60.13" style="fill: rgb(240, 240, 240); transform-origin: 314.2px 291.475px; transform: rotate(90deg);" class="animable"></rect></g><g id="el1g24osyt6wv"><rect x="287.43" y="205.12" width="53.53" height="53.53" style="fill: rgb(230, 230, 230); transform-origin: 314.195px 231.885px; transform: rotate(90deg);" class="animable"></rect></g><g id="eln43nmznb8r"><rect x="287.43" y="263.45" width="53.53" height="53.53" style="fill: rgb(230, 230, 230); transform-origin: 314.195px 290.215px; transform: rotate(90deg);" class="animable"></rect></g><g id="el57zy40likpv"><rect x="287.43" y="321.78" width="53.53" height="53.53" style="fill: rgb(230, 230, 230); transform-origin: 314.195px 348.545px; transform: rotate(90deg);" class="animable"></rect></g><g id="el01drbkgx3r0j"><rect x="271.2" y="221.35" width="53.53" height="21.05" style="fill: rgb(224, 224, 224); transform-origin: 297.965px 231.875px; transform: rotate(90deg);" class="animable"></rect></g><g id="elfjjvz0zco7u"><rect x="271.2" y="279.69" width="53.53" height="21.05" style="fill: rgb(224, 224, 224); transform-origin: 297.965px 290.215px; transform: rotate(90deg);" class="animable"></rect></g><g id="elcmayb9dbhkd"><rect x="271.2" y="338.02" width="53.53" height="21.05" style="fill: rgb(224, 224, 224); transform-origin: 297.965px 348.545px; transform: rotate(90deg);" class="animable"></rect></g><g id="elzsu5orzkx1b"><rect x="261.5" y="283.31" width="181.84" height="16.33" style="fill: rgb(245, 245, 245); transform-origin: 352.42px 291.475px; transform: rotate(90deg);" class="animable"></rect></g><g id="elfjrszqmmm2j"><rect x="287.56" y="261.41" width="181.84" height="60.13" style="fill: rgb(240, 240, 240); transform-origin: 378.48px 291.475px; transform: rotate(90deg);" class="animable"></rect></g><g id="el7smvcd05axv"><rect x="351.72" y="205.12" width="53.53" height="53.53" style="fill: rgb(230, 230, 230); transform-origin: 378.485px 231.885px; transform: rotate(90deg);" class="animable"></rect></g><g id="elw4yhb0og3o"><rect x="351.72" y="263.45" width="53.53" height="53.53" style="fill: rgb(230, 230, 230); transform-origin: 378.485px 290.215px; transform: rotate(90deg);" class="animable"></rect></g><g id="el4x8sgyi31c6"><rect x="351.72" y="321.78" width="53.53" height="53.53" style="fill: rgb(230, 230, 230); transform-origin: 378.485px 348.545px; transform: rotate(90deg);" class="animable"></rect></g><g id="elt1de9a7hfqq"><rect x="335.48" y="221.35" width="53.53" height="21.05" style="fill: rgb(224, 224, 224); transform-origin: 362.245px 231.875px; transform: rotate(90deg);" class="animable"></rect></g><g id="elelffqqdwud"><rect x="335.48" y="279.69" width="53.53" height="21.05" style="fill: rgb(224, 224, 224); transform-origin: 362.245px 290.215px; transform: rotate(90deg);" class="animable"></rect></g><g id="el4da4g0uqmbv"><rect x="335.48" y="338.02" width="53.53" height="21.05" style="fill: rgb(224, 224, 224); transform-origin: 362.245px 348.545px; transform: rotate(90deg);" class="animable"></rect></g><g id="elg3xl41uuuvg"><rect x="325.79" y="283.31" width="181.84" height="16.33" style="fill: rgb(245, 245, 245); transform-origin: 416.71px 291.475px; transform: rotate(90deg);" class="animable"></rect></g><g id="elf7u3l775d7"><circle cx="378.48" cy="244.82" r="13.82" style="fill: rgb(245, 245, 245); transform-origin: 378.48px 244.82px; transform: rotate(-45deg);" class="animable"></circle></g><path d="M331.33,303.16a13.83,13.83,0,0,1-27.65,0Z" style="fill: rgb(240, 240, 240); transform-origin: 317.505px 309.889px;" id="elk01fm5rfjv" class="animable"></path><path d="M331.33,292.82a13.83,13.83,0,1,1-27.65,0Z" style="fill: rgb(240, 240, 240); transform-origin: 317.505px 299.921px;" id="elihbcl3v5t9a" class="animable"></path><g id="el3u8avf9qdkb"><rect x="355.35" y="329.5" width="43.46" height="45.81" style="fill: rgb(240, 240, 240); transform-origin: 377.08px 352.405px; transform: rotate(180deg);" class="animable"></rect></g><rect x="398.81" y="329.5" width="6.43" height="45.81" style="fill: rgb(224, 224, 224); transform-origin: 402.025px 352.405px;" id="elzwangse9twh" class="animable"></rect><g id="el7b9osgh6so4"><rect x="366.66" y="133.59" width="17.28" height="66.96" style="fill: rgb(230, 230, 230); transform-origin: 375.3px 167.07px; transform: rotate(180deg);" class="animable"></rect></g><polygon points="319.81 200.56 377.16 200.56 385.82 122.18 328.47 122.18 319.81 200.56" style="fill: rgb(240, 240, 240); transform-origin: 352.815px 161.37px;" id="elb65qr1o6qqs" class="animable"></polygon><polygon points="313.6 200.56 372.83 200.56 381.5 122.18 322.26 122.18 313.6 200.56" style="fill: rgb(245, 245, 245); transform-origin: 347.55px 161.37px;" id="el26y83g5rify" class="animable"></polygon><polygon points="355.76 200.56 367.26 200.56 354.01 122.18 342.52 122.18 355.76 200.56" style="fill: rgb(250, 250, 250); transform-origin: 354.89px 161.37px;" id="elqmdavgszl2" class="animable"></polygon><polygon points="345.52 200.56 349.98 200.56 336.73 122.18 332.27 122.18 345.52 200.56" style="fill: rgb(250, 250, 250); transform-origin: 341.125px 161.37px;" id="el7tc6ce2l6cm" class="animable"></polygon><g id="elf0t6w66mul"><rect x="63.11" y="95.17" width="150.67" height="135" style="fill: rgb(235, 235, 235); transform-origin: 138.445px 162.67px; transform: rotate(90deg);" class="animable"></rect></g><g id="ela8uqkx05n4m"><rect x="131.22" y="162.06" width="150.67" height="1.22" style="fill: rgb(224, 224, 224); transform-origin: 206.555px 162.67px; transform: rotate(90deg);" class="animable"></rect></g><g id="el4ji5eezhtqq"><rect x="80.94" y="97.33" width="115" height="130.67" style="fill: rgb(245, 245, 245); transform-origin: 138.44px 162.665px; transform: rotate(180deg);" class="animable"></rect></g><g id="elz9guqcmlxs"><rect x="147.52" y="189.67" width="32.39" height="45.33" style="fill: rgb(255, 255, 255); transform-origin: 163.715px 212.335px; transform: rotate(180deg);" class="animable"></rect></g><polygon points="100.01 219.04 132.39 219.04 134.72 173.71 102.34 173.71 100.01 219.04" style="fill: rgb(255, 255, 255); transform-origin: 117.365px 196.375px;" id="elf8xfxekrbhs" class="animable"></polygon><polygon points="165.59 138.38 197.97 138.38 200.3 93.04 167.92 93.04 165.59 138.38" style="fill: rgb(255, 255, 255); transform-origin: 182.945px 115.71px;" id="elbf0wd27necw" class="animable"></polygon><g id="elux17naoa7p"><rect x="124.03" y="119.73" width="32.38" height="45.33" style="fill: rgb(255, 255, 255); transform-origin: 140.22px 142.395px; transform: rotate(-177.49deg);" class="animable"></rect></g><g id="elx4uhxqiu3da"><rect x="76.01" y="105.93" width="32.38" height="45.33" style="fill: rgb(255, 255, 255); transform-origin: 92.2px 128.595px; transform: rotate(178.34deg);" class="animable"></rect></g></g><g id="freepik--Shadow--inject-7" class="animable" style="transform-origin: 250px 416.24px;"><ellipse id="freepik--path--inject-7" cx="250" cy="416.24" rx="193.89" ry="11.32" style="fill: rgb(245, 245, 245); transform-origin: 250px 416.24px;" class="animable"></ellipse></g><g id="freepik--Character--inject-7" class="animable" style="transform-origin: 195.839px 276.71px;"><polygon points="154.92 408.35 162.65 408.35 165.74 390.46 158.01 390.46 154.92 408.35" style="fill: rgb(255, 195, 189); transform-origin: 160.33px 399.405px;" id="elnysrwcoyiyd" class="animable"></polygon><polygon points="109.49 408.35 117.22 408.35 124.28 390.46 116.55 390.46 109.49 408.35" style="fill: rgb(255, 195, 189); transform-origin: 116.885px 399.405px;" id="el5eaavhdvl8d" class="animable"></polygon><path d="M118.3,407.46h-9.42a.72.72,0,0,0-.68.52l-1.93,6.87a1.06,1.06,0,0,0,1,1.37c3-.05,5.26-.23,9.07-.23,2.35,0,7.17.25,10.42.25s3.85-3.21,2.54-3.5c-5.88-1.3-8-3.1-9.82-4.81A1.78,1.78,0,0,0,118.3,407.46Z" style="fill: rgb(38, 50, 56); transform-origin: 118.085px 411.85px;" id="elssicy2tzub" class="animable"></path><path d="M162.64,407.46h-8.43a.73.73,0,0,0-.69.52l-1.92,6.87a1.05,1.05,0,0,0,1,1.37c3-.05,7.45-.23,11.27-.23,4.48,0,8.32.25,13.57.25,3.17,0,4.23-3.21,2.92-3.5-6-1.32-10.89-1.46-15.92-4.68A3.41,3.41,0,0,0,162.64,407.46Z" style="fill: rgb(38, 50, 56); transform-origin: 166.229px 411.85px;" id="elorvtd2aj8e" class="animable"></path><path d="M162.24,187.09c4.08,2.56,8.37,5.14,12.6,7.59s8.53,4.83,12.83,6.89c1.07.53,2.14,1,3.21,1.48.53.24,1.06.43,1.59.65l.8.33.65.24a7.81,7.81,0,0,0,4.37.55,8.06,8.06,0,0,0,4.15-2.57,19.39,19.39,0,0,0,1.93-2.44c.3-.45.59-.92.86-1.4L206,197l5.66,1.3a20.93,20.93,0,0,1-.37,2.24c-.16.7-.34,1.4-.56,2.1a20.24,20.24,0,0,1-1.77,4.12,17.66,17.66,0,0,1-3,3.87,14.72,14.72,0,0,1-4.42,3,14.94,14.94,0,0,1-5.35,1.22,17.89,17.89,0,0,1-5.13-.51c-.38-.09-.84-.19-1.16-.3l-1-.31c-.65-.21-1.32-.41-1.95-.64-1.26-.47-2.56-.91-3.77-1.43a140.15,140.15,0,0,1-14.11-6.79c-2.27-1.24-4.51-2.51-6.71-3.85s-4.37-2.66-6.58-4.15Z" style="fill: rgb(255, 195, 189); transform-origin: 183.72px 200.979px;" id="el1x4eiycjqf5" class="animable"></path><path d="M150.61,194.22c1.53,7.38,20.1,18,20.1,18l6.77-17.79s-5.29-3.31-13.19-8.59S148.92,186.12,150.61,194.22Z" style="fill: rgb(38, 50, 56); transform-origin: 163.924px 197.995px;" id="elppgwldt3tgm" class="animable"></path><path d="M203.85,199.85l5.37-8.43,4,9.18s-3.18,4.82-8.09,2.34Z" style="fill: rgb(255, 195, 189); transform-origin: 208.535px 197.535px;" id="elczh3pa4kkr" class="animable"></path><polygon points="216.07 188.23 218.7 195.11 213.23 200.59 209.22 191.42 216.07 188.23" style="fill: rgb(255, 195, 189); transform-origin: 213.96px 194.41px;" id="elhndu9zqki5t" class="animable"></polygon><g id="elwub3kixxrb"><polygon points="165.74 390.47 164.14 399.69 156.42 399.69 158.01 390.47 165.74 390.47" style="opacity: 0.2; transform-origin: 161.08px 395.08px;" class="animable"></polygon></g><g id="elay4i9vcgdor"><polygon points="116.55 390.47 124.28 390.47 120.63 399.69 112.91 399.69 116.55 390.47" style="opacity: 0.2; transform-origin: 118.595px 395.08px;" class="animable"></polygon></g><path d="M159.57,184s10.73,22.12,5.29,66.64l-41,5.38c-.74-6.3,1-37.73-7.27-66.78a111.17,111.17,0,0,1,13.59-3.55,151.52,151.52,0,0,1,17.41-2.28A75.3,75.3,0,0,1,159.57,184Z" style="fill: rgb(38, 50, 56); transform-origin: 141.494px 219.697px;" id="elo76m1gbp7g" class="animable"></path><g id="elu8hrivwciik"><path d="M116.63,189.26l.18-.06c4-1.12,8.61,3.1,11.07,9.26,3.59,9,7.82,20.87,7.82,20.87l-13.25,3.17A182.67,182.67,0,0,0,116.63,189.26Z" style="opacity: 0.2; transform-origin: 126.165px 205.76px;" class="animable"></path></g><path d="M130.51,165.73c1.51,5.5,3.35,15.7-.29,20a30.87,30.87,0,0,0,16.61,7c3.83-4.07.8-9.27.8-9.27-6.36-.69-6.53-5.38-5.76-9.91Z" style="fill: rgb(255, 195, 189); transform-origin: 139.494px 179.23px;" id="el788z2j8sxq3" class="animable"></path><path d="M162.42,234.42h0l-9.19-51h0a13.08,13.08,0,0,0-10.56,15.19l4.55,25.28A13.09,13.09,0,0,0,162.42,234.42Z" style="fill: rgb(22, 160, 133); transform-origin: 152.442px 209.024px;" id="el49xdsmob3um" class="animable"></path><g id="el10e8u0eg0l8c"><path d="M162.42,234.42h0l-9.19-51h0a13.08,13.08,0,0,0-10.56,15.19l4.55,25.28A13.09,13.09,0,0,0,162.42,234.42Z" style="opacity: 0.3; transform-origin: 152.442px 209.024px;" class="animable"></path></g><path d="M197.63,284.9l-6.44,1.16a7.93,7.93,0,0,1-9.32-7.39l-2.65-51a7.91,7.91,0,0,1,6.51-8.21l11.91-2.15a7.93,7.93,0,0,1,9.15,9.45L202,249.18a8,8,0,0,0-.14,2.35l2.22,24.87A7.92,7.92,0,0,1,197.63,284.9Z" style="fill: rgb(22, 160, 133); transform-origin: 193.085px 251.686px;" id="elud0w2ejmhuh" class="animable"></path><g id="el2of0w054bbx"><path d="M197.64,217.29l-11.91,2.14a7.93,7.93,0,0,0-6.51,8.21l.87,16.93q11.78-2,23.62-3.33l3.08-14.52A7.92,7.92,0,0,0,197.64,217.29Z" style="opacity: 0.2; transform-origin: 193.085px 230.868px;" class="animable"></path></g><polygon points="207.48 264.86 196.65 266.8 196.74 248.02 207.57 246.07 207.48 264.86" style="fill: rgb(22, 160, 133); transform-origin: 202.11px 256.435px;" id="ela81vi2eb1n9" class="animable"></polygon><path d="M209.12,255.17c0,5.19-.76,9.53-1.64,9.68s-1.58-3.91-1.56-9.1.76-9.52,1.65-9.68S209.15,250,209.12,255.17Z" style="fill: rgb(22, 160, 133); transform-origin: 207.52px 255.46px;" id="elkyt637cuen7" class="animable"></path><g id="el86l5zl49koj"><path d="M209.12,255.17c0,5.19-.76,9.53-1.64,9.68s-1.58-3.91-1.56-9.1.76-9.52,1.65-9.68S209.15,250,209.12,255.17Z" style="opacity: 0.2; transform-origin: 207.52px 255.46px;" class="animable"></path></g><path d="M163.2,170.71h0a13.67,13.67,0,0,0-11,15.86l8.14,45.23a13.66,13.66,0,0,0,15.86,11h0a405.94,405.94,0,0,1,80.57-6.31l27.77.61-17.78-98.83-25.82,10.25A405.17,405.17,0,0,1,163.2,170.71Z" style="fill: rgb(22, 160, 133); transform-origin: 218.263px 190.643px;" id="elxmf0y9bj3a8" class="animable"></path><g id="el27yu9ftbx0v"><path d="M234.5,151l15.36,85.41c1.35,0,2.71,0,4.06,0l-15.64-86.9C237,150.07,235.76,150.55,234.5,151Z" style="opacity: 0.3; transform-origin: 244.21px 192.96px;" class="animable"></path></g><path d="M279.82,187c4.91,27.29,7,49.75,4.7,50.17s-8.17-21.37-13.08-48.66-7-49.75-4.7-50.17S274.91,159.66,279.82,187Z" style="fill: rgb(22, 160, 133); transform-origin: 275.63px 187.755px;" id="elxovoigzmfi9" class="animable"></path><g id="ell628f531n6c"><path d="M279.82,187c4.91,27.29,7,49.75,4.7,50.17s-8.17-21.37-13.08-48.66-7-49.75-4.7-50.17S274.91,159.66,279.82,187Z" style="opacity: 0.2; transform-origin: 275.63px 187.755px;" class="animable"></path></g><g id="elp7ryvq6ez9"><path d="M135.14,168.91l6.72,4.61a18.4,18.4,0,0,0-.31,3.18c-2.41,0-5.88-2.24-6.32-4.72A8.56,8.56,0,0,1,135.14,168.91Z" style="opacity: 0.2; transform-origin: 138.451px 172.805px;" class="animable"></path></g><path d="M140.81,143.28c4.06.37,10.18,11.28,6.11,15.12S133.12,142.57,140.81,143.28Z" style="fill: rgb(38, 50, 56); transform-origin: 143.098px 151.079px;" id="eljd2uvij4gsk" class="animable"></path><path d="M126.56,158.84c2.37,7.2,3.38,11.55,8.08,14.13,7.06,3.88,15.28-2.38,15.13-10.27-.13-7.1-4-17.68-11.94-18.3A11.11,11.11,0,0,0,126.56,158.84Z" style="fill: rgb(255, 195, 189); transform-origin: 137.907px 159.266px;" id="elskr6qzio95" class="animable"></path><path d="M146,142.11a24.52,24.52,0,0,0-6-.47,24.55,24.55,0,0,0,3.17-3.55,20,20,0,0,1-6.17,2.83,10,10,0,0,0,.68-2.88c-1.53,1.84-4.13,3.09-6.94,4.14a16.21,16.21,0,0,0,2.73-5c-1.75,3.23-8.32,6-12.46,8.75l-.06,0a6.74,6.74,0,0,0-.83.58l0,0a3.36,3.36,0,0,0-.86.88,4.11,4.11,0,0,0,.7,6.13,3.91,3.91,0,0,0-1.25,4.91c-.06-1.4.27-2.93,1.28-3.55-1.7,4.92,4,9.56,9.08,10.87,3,.76,4.84-10.72,2-15.26,3.85-.49,7.14-1.45,9.11-2.81a10.16,10.16,0,0,1-4.6.39c3.7-1.46,7.68-3.52,10.82-3a13.44,13.44,0,0,0-4.72-.81,9.25,9.25,0,0,1,3.35-.69c3.37.14,5.59,3,4.73,4.92C151.05,146.42,150.58,143.08,146,142.11Z" style="fill: rgb(38, 50, 56); transform-origin: 134.29px 151.483px;" id="el95qbzazf2fq" class="animable"></path><path d="M125.34,168a6.88,6.88,0,0,0,5.18,1.69c2.53-.24,3-2.76,1.68-4.7-1.22-1.74-4-3.72-6.24-2.51A3.37,3.37,0,0,0,125.34,168Z" style="fill: rgb(255, 195, 189); transform-origin: 128.547px 165.913px;" id="elqriunfc1o3" class="animable"></path><path d="M164.86,250.66s21,57.73,18.77,81.28c-2.29,24.51-16.48,66-16.48,66H154.06s7.68-40,8.5-64.09c.89-26.23-23.15-59.4-24.62-79.61Z" style="fill: rgb(22, 160, 133); transform-origin: 160.868px 324.3px;" id="elfdxztw15qzh" class="animable"></path><g id="el72gd4b195kr"><path d="M143.44,270.56a5.76,5.76,0,0,0-1.52-.69c4.6,12.39,12.05,26.84,16.63,40.94C159.05,287.5,154,277.12,143.44,270.56Z" style="opacity: 0.2; transform-origin: 150.252px 290.34px;" class="animable"></path></g><path d="M150.33,252.57s6,57.1-.09,79.21c-6.67,24.22-25.87,66.12-25.87,66.12H110.22S122.54,358,126.94,334c4.78-26-1.63-58.61-3-77.94Z" style="fill: rgb(22, 160, 133); transform-origin: 131.595px 325.235px;" id="elfweyco4hq0i" class="animable"></path><polygon points="126.86 398.21 108.89 398.21 110.1 392.91 129.34 392.91 126.86 398.21" style="fill: rgb(22, 160, 133); transform-origin: 119.115px 395.56px;" id="elp54g8eu2tmn" class="animable"></polygon><g id="elfwhnkcgpeaw"><polygon points="126.86 398.21 108.89 398.21 110.1 392.91 129.34 392.91 126.86 398.21" style="opacity: 0.4; transform-origin: 119.115px 395.56px;" class="animable"></polygon></g><polygon points="170.05 398.21 152.27 398.21 152.56 393.17 171.04 392.91 170.05 398.21" style="fill: rgb(22, 160, 133); transform-origin: 161.655px 395.56px;" id="eline0n7ecpa8" class="animable"></polygon><g id="elzfu3j73z58s"><polygon points="170.05 398.21 152.27 398.21 152.56 393.17 171.04 392.91 170.05 398.21" style="opacity: 0.4; transform-origin: 161.655px 395.56px;" class="animable"></polygon></g><path d="M138.27,157.33c.15.59.6,1,1,.85s.58-.71.43-1.31-.6-1-1-.85S138.11,156.73,138.27,157.33Z" style="fill: rgb(38, 50, 56); transform-origin: 138.983px 157.1px;" id="el529a30i29eb" class="animable"></path><path d="M145,155.16c.16.6.6,1,1,.86s.59-.72.43-1.31-.6-1-1-.86S144.89,154.56,145,155.16Z" style="fill: rgb(38, 50, 56); transform-origin: 145.725px 154.935px;" id="el9wqddbcoky8" class="animable"></path><path d="M143,156.15a20.48,20.48,0,0,0,4.19,4.19,3.75,3.75,0,0,1-2.73,1.45Z" style="fill: rgb(237, 132, 126); transform-origin: 145.095px 158.97px;" id="elcyroqkt3g55" class="animable"></path><path d="M143.12,164a5,5,0,0,1-4.69-.68.18.18,0,0,1,0-.26.18.18,0,0,1,.25,0,4.74,4.74,0,0,0,4.36.61.17.17,0,0,1,.22.12A.2.2,0,0,1,143.12,164Z" style="fill: rgb(38, 50, 56); transform-origin: 140.818px 163.656px;" id="elnhgbyz35kvs" class="animable"></path><path d="M135.66,155.8a.45.45,0,0,1-.23,0,.35.35,0,0,1-.2-.47,3.91,3.91,0,0,1,2.49-2.37.35.35,0,0,1,.43.27.41.41,0,0,1-.29.45h0a3.12,3.12,0,0,0-2,1.89A.42.42,0,0,1,135.66,155.8Z" style="fill: rgb(38, 50, 56); transform-origin: 136.677px 154.382px;" id="elkrz5mbul8bk" class="animable"></path><path d="M147.41,151.89a.36.36,0,0,1-.37-.09,2.73,2.73,0,0,0-2.4-1,.33.33,0,0,1-.4-.29.4.4,0,0,1,.31-.43,3.37,3.37,0,0,1,3,1.17.38.38,0,0,1,0,.52A.29.29,0,0,1,147.41,151.89Z" style="fill: rgb(38, 50, 56); transform-origin: 145.945px 150.981px;" id="elvf4szsfjwh9" class="animable"></path><path d="M124.86,195.5c.86,3.35,1.76,6.87,2.73,10.28s1.94,6.84,3,10.2,2.24,6.68,3.49,9.9a62.88,62.88,0,0,0,4.23,9c.2.31.39.67.59.95l.31.45.15.22s0,0,0,0a4.39,4.39,0,0,0,1,.89,30.23,30.23,0,0,0,4,2.34c3,1.49,6.27,2.86,9.57,4.15,6.62,2.58,13.48,5,20.28,7.32l-1.32,5.65a187.47,187.47,0,0,1-21.76-4.48,100,100,0,0,1-10.84-3.56,37.88,37.88,0,0,1-5.64-2.76,15.08,15.08,0,0,1-3.2-2.57L131,243l-.25-.32-.51-.66c-.35-.44-.62-.87-.93-1.31a65.14,65.14,0,0,1-5.62-10.47c-1.56-3.49-2.88-7-4.11-10.57a201,201,0,0,1-6.17-21.51Z" style="fill: rgb(255, 195, 189); transform-origin: 143.81px 226.175px;" id="elaf6w171eyhe" class="animable"></path><path d="M112.05,193.51c-3.8,8.86,2.38,29.07,2.38,29.07l18.5-4.75A152.73,152.73,0,0,0,128,196.76C124.8,187.29,115,186.69,112.05,193.51Z" style="fill: rgb(38, 50, 56); transform-origin: 121.872px 205.76px;" id="elxd82r9wzmmo" class="animable"></path><path d="M120.78,408.81a8.85,8.85,0,0,1-2-.28.18.18,0,0,1-.13-.15.2.2,0,0,1,.1-.18c.29-.18,2.87-1.71,3.7-1.27a.54.54,0,0,1,.28.52,1.17,1.17,0,0,1-.43,1A2.42,2.42,0,0,1,120.78,408.81Zm-1.46-.54a3.77,3.77,0,0,0,2.75-.14.79.79,0,0,0,.29-.66.24.24,0,0,0-.11-.22C121.82,407,120.36,407.69,119.32,408.27Z" style="fill: rgb(22, 160, 133); transform-origin: 120.692px 407.836px;" id="elcno99p00pql" class="animable"></path><path d="M118.81,408.53l-.09,0a.17.17,0,0,1-.08-.16c0-.1.33-2.33,1.27-3.06a1,1,0,0,1,.79-.23.55.55,0,0,1,.56.47c.11.87-1.53,2.56-2.36,3A.13.13,0,0,1,118.81,408.53Zm1.75-3.13a.72.72,0,0,0-.43.16,4.7,4.7,0,0,0-1.06,2.42c.83-.6,1.89-1.88,1.82-2.39,0,0,0-.15-.25-.18Z" style="fill: rgb(22, 160, 133); transform-origin: 119.952px 406.811px;" id="elr0xhupxrhbp" class="animable"></path><path d="M165.78,408.81a12.78,12.78,0,0,1-2.41-.28.16.16,0,0,1-.14-.15.19.19,0,0,1,.11-.19c.36-.18,3.55-1.76,4.46-1.23a.55.55,0,0,1,.28.48,1.09,1.09,0,0,1-.4.89A3,3,0,0,1,165.78,408.81Zm-1.79-.54c1.69.28,3,.21,3.46-.21a.71.71,0,0,0,.26-.59.2.2,0,0,0-.1-.19C167.11,407,165.3,407.66,164,408.27Z" style="fill: rgb(22, 160, 133); transform-origin: 165.655px 407.836px;" id="elg9oqwcdz37g" class="animable"></path><path d="M163.4,408.53a.17.17,0,0,1-.1,0,.18.18,0,0,1-.07-.17,5.52,5.52,0,0,1,1.37-3,1.43,1.43,0,0,1,1-.32c.5.06.63.31.66.52.09.87-1.86,2.54-2.81,3Zm2.07-3.13a1,1,0,0,0-.65.24,4.54,4.54,0,0,0-1.16,2.38c1-.57,2.32-1.88,2.26-2.41,0,0,0-.17-.34-.2Z" style="fill: rgb(22, 160, 133); transform-origin: 164.746px 406.798px;" id="elheg0uk89nss" class="animable"></path><path d="M172.74,251.07l7.73-1.27-3.11,9.61s-6.74-.39-6.73-4.07Z" style="fill: rgb(255, 195, 189); transform-origin: 175.55px 254.605px;" id="el23wj5m503yr" class="animable"></path><polygon points="187.79 253.37 184.83 261.13 177.36 259.41 180.47 249.8 187.79 253.37" style="fill: rgb(255, 195, 189); transform-origin: 182.575px 255.465px;" id="el3riirt5inr5" class="animable"></polygon></g><g id="freepik--News--inject-7" class="animable" style="transform-origin: 358.224px 167.184px;"><path d="M392.33,143.53,381,101.43a6.47,6.47,0,0,0-7.93-4.57l-82,22a6.48,6.48,0,0,0-4.57,7.94l11.32,42.1a6.48,6.48,0,0,0,7.93,4.58l11.57-3.11,15.93,9.17L329.86,167l57.9-15.56A6.48,6.48,0,0,0,392.33,143.53Z" style="fill: rgb(22, 160, 133); transform-origin: 339.411px 138.089px;" id="ele0afttpbl2e" class="animable"></path><g id="ele7w5gy4qf5h"><path d="M392.33,143.53,381,101.43a6.47,6.47,0,0,0-7.93-4.57l-82,22a6.48,6.48,0,0,0-4.57,7.94l11.32,42.1a6.48,6.48,0,0,0,7.93,4.58l11.57-3.11,15.93,9.17L329.86,167l57.9-15.56A6.48,6.48,0,0,0,392.33,143.53Z" style="opacity: 0.2; transform-origin: 339.411px 138.089px;" class="animable"></path></g><path d="M425.74,231.68l4.38-28.5a4.28,4.28,0,0,0-3.58-4.88L371,189.76a4.27,4.27,0,0,0-4.88,3.58l-4.39,28.5a4.28,4.28,0,0,0,3.58,4.88l7.83,1.21,7.19,9.8,1.31-8.5,39.18,6A4.28,4.28,0,0,0,425.74,231.68Z" style="fill: rgb(22, 160, 133); transform-origin: 395.925px 213.719px;" id="eliosmcfpgp4" class="animable"></path><g id="elh8l3ulnwntd"><path d="M425.74,231.68l4.38-28.5a4.28,4.28,0,0,0-3.58-4.88L371,189.76a4.27,4.27,0,0,0-4.88,3.58l-4.39,28.5a4.28,4.28,0,0,0,3.58,4.88l7.83,1.21,7.19,9.8,1.31-8.5,39.18,6A4.28,4.28,0,0,0,425.74,231.68Z" style="fill: rgb(255, 255, 255); opacity: 0.3; transform-origin: 395.925px 213.719px;" class="animable"></path></g><path d="M423.77,185.48l-7.14-51a7.66,7.66,0,0,0-8.65-6.52l-99.41,13.9a7.66,7.66,0,0,0-6.52,8.65l7.14,51a7.64,7.64,0,0,0,8.64,6.52l14-2,17.35,13.09-2.13-15.22,70.17-9.81A7.67,7.67,0,0,0,423.77,185.48Z" style="fill: rgb(22, 160, 133); transform-origin: 362.906px 173.503px;" id="el8rh6w4s7tr2" class="animable"></path><path d="M318.43,164.26l5.63-.79,8.85,9.76-1.51-10.79,5.68-.79,2.73,19.5-5.68.8-8.8-9.69,1.5,10.71-5.67.79Z" style="fill: rgb(255, 255, 255); transform-origin: 329.12px 172.705px;" id="elyw5x49z75ei" class="animable"></path><path d="M341.07,161.09l16.16-2.26.58,4.17-10.11,1.41.43,3.1,9.38-1.31.56,4-9.38,1.31.53,3.84,10.41-1.45.62,4.41-16.45,2.3Z" style="fill: rgb(255, 255, 255); transform-origin: 350.66px 169.72px;" id="elsf85w0knqw" class="animable"></path><path d="M358.76,158.62l5.72-.8,3.59,10.63,1.49-11.34,5.7-.8,4.55,10.48.54-11.19,5.69-.8-1.57,20.11-5.91.82-5.14-11.8-1.69,12.76-5.91.82Z" style="fill: rgb(255, 255, 255); transform-origin: 372.4px 166.155px;" id="elcvz73b2axsu" class="animable"></path><path d="M388.78,167.72l5.69-1.16a4.4,4.4,0,0,0,1,2,3.25,3.25,0,0,0,2.83.81,2.94,2.94,0,0,0,1.9-.89,1.84,1.84,0,0,0,.51-1.5,1.82,1.82,0,0,0-.86-1.26,7.74,7.74,0,0,0-3.24-.7,13.3,13.3,0,0,1-6-1.58,4.82,4.82,0,0,1-2.23-3.52,5.16,5.16,0,0,1,.48-3,5.87,5.87,0,0,1,2.32-2.47,12.39,12.39,0,0,1,4.69-1.43,10,10,0,0,1,5.9.59,6.06,6.06,0,0,1,2.95,4.1l-5.63,1.13a3.11,3.11,0,0,0-1.22-1.79,3.16,3.16,0,0,0-2.09-.32,2.42,2.42,0,0,0-1.52.67,1.39,1.39,0,0,0-.38,1.16,1.1,1.1,0,0,0,.56.78,5.05,5.05,0,0,0,2.12.43,25.69,25.69,0,0,1,5.9.93,6.07,6.07,0,0,1,2.79,1.82,5.53,5.53,0,0,1,1.18,2.78,6.22,6.22,0,0,1-.55,3.6,6.58,6.58,0,0,1-2.56,2.81,11.81,11.81,0,0,1-4.59,1.47q-5,.7-7.16-1A7.69,7.69,0,0,1,388.78,167.72Z" style="fill: rgb(255, 255, 255); transform-origin: 397.413px 163.101px;" id="el0nv679oag0ri" class="animable"></path></g><defs>     <filter id="active" height="200%">         <feMorphology in="SourceAlpha" result="DILATED" operator="dilate" radius="2"></feMorphology>                <feFlood flood-color="#32DFEC" flood-opacity="1" result="PINK"></feFlood>        <feComposite in="PINK" in2="DILATED" operator="in" result="OUTLINE"></feComposite>        <feMerge>            <feMergeNode in="OUTLINE"></feMergeNode>            <feMergeNode in="SourceGraphic"></feMergeNode>        </feMerge>    </filter>    <filter id="hover" height="200%">        <feMorphology in="SourceAlpha" result="DILATED" operator="dilate" radius="2"></feMorphology>                <feFlood flood-color="#ff0000" flood-opacity="0.5" result="PINK"></feFlood>        <feComposite in="PINK" in2="DILATED" operator="in" result="OUTLINE"></feComposite>        <feMerge>            <feMergeNode in="OUTLINE"></feMergeNode>            <feMergeNode in="SourceGraphic"></feMergeNode>        </feMerge>            <feColorMatrix type="matrix" values="0   0   0   0   0                0   1   0   0   0                0   0   0   0   0                0   0   0   1   0 "></feColorMatrix>    </filter></defs></svg>